<?xml version="1.0" encoding="UTF-8"?>
<svg width="100" height="32" viewBox="0 0 100 32" fill="none" xmlns="http://www.w3.org/2000/svg">
  <path d="M20.5 8.5C24.5 8.5 27.5 11.5 27.5 15.5C27.5 19.5 24.5 22.5 20.5 22.5C16.5 22.5 13.5 19.5 13.5 15.5C13.5 11.5 16.5 8.5 20.5 8.5ZM20.5 6C15.3 6 11 10.3 11 15.5C11 20.7 15.3 25 20.5 25C25.7 25 30 20.7 30 15.5C30 10.3 25.7 6 20.5 6Z" fill="#084298"/>
  <path d="M45 9H35V23H45V9Z" fill="#084298"/>
  <path d="M60 9H50V23H60V9Z" fill="#084298"/>
  <path d="M75 9H65V23H75V9Z" fill="#084298"/>
  <text x="85" y="20" font-family="Arial" font-size="16" fill="#084298">eSwap</text>
</svg>