<?xml version="1.0" encoding="UTF-8"?>
<svg id="Layer_4" data-name="Layer 4" xmlns="http://www.w3.org/2000/svg" viewBox="0 0 1024 1024">
  <defs>
    <style>
      .cls-1 {
        fill: #fff;
      }

      .cls-2 {
        fill: #4f46e5;
      }
    </style>
  </defs>
  <path class="cls-2" d="m512,2.62c120.89,0,236.83,48.02,322.31,133.51,85.48,85.48,133.5,201.42,133.5,322.31,0,155.69-84.88,283.11-174.32,374.53-44.69,45.18-93.45,86.14-145.66,122.36l-21.57,14.69-10.13,6.74-19.09,12.16-17.01,10.38-21.07,12.26c-14.3,8.16-30.48,12.45-46.95,12.45s-32.65-4.29-46.95-12.45l-21.07-12.26-26.34-16.21-9.72-6.33-20.76-13.82c-56.33-38.11-108.79-81.64-156.65-129.96-89.44-91.47-174.32-218.84-174.32-374.53,0-120.89,48.02-236.83,133.51-322.31C275.17,50.65,391.11,2.62,512,2.62Z"/>
  <path class="cls-1" d="m486.93,518.31l-148.57-17.91c-10.45-1.19-17.24-6.57-20.39-16.12-3.14-9.55-.94-17.71,6.59-24.48l256.39-234.07c2.09-1.99,4.6-3.48,7.52-4.47,2.93-.99,6.9-1.49,11.91-1.5,8.36,0,14.73,3.38,19.13,10.15,4.39,6.77,4.49,13.73.3,20.9l-82.75,148.08,148.57,17.91c10.45,1.19,17.24,6.57,20.39,16.12,3.14,9.55.94,17.72-6.6,24.48l-256.39,234.07c-2.09,1.99-4.6,3.49-7.52,4.49-2.93,1-6.9,1.5-11.91,1.48-8.36,0-14.74-3.38-19.13-10.15-4.4-6.77-4.5-13.73-.3-20.9l82.75-148.08Z"/>
</svg>